<svg xmlns="http://www.w3.org/2000/svg" width="66" height="41" viewBox="0 0 66 41">
  <defs>
    <style>
      .cls-1, .cls-4 {
        fill: #fff;
      }

      .cls-1, .cls-2 {
        font-size: 4px;
        font-family: SourceHanSansKR-Bold, Source Han Sans KR;
        font-weight: 700;
        letter-spacing: -0.04em;
      }

      .cls-2 {
        fill: #afafaf;
      }

      .cls-3 {
        fill: #0656ff;
      }

      .cls-5 {
        fill: none;
      }
    </style>
  </defs>
  <g id="logo" transform="translate(-2634.689 149.669)">
    <g id="그룹_1476" data-name="그룹 1476" transform="translate(2637.504 -147.496)">
      <g id="그룹_1476-2" data-name="그룹 1476" transform="translate(0 0)">
        <g id="구성_요소_6_3" data-name="구성 요소 6 – 3">
          <text id="로그인" class="cls-1" transform="translate(18.997 10.2)"><tspan x="0" y="0">로그인</tspan></text>
          <text id="로고" class="cls-2" transform="translate(24.551 18.532)"><tspan x="0" y="0">로고</tspan></text>
          <g id="그룹_1475" data-name="그룹 1475">
            <path id="패스_2400" data-name="패스 2400" class="cls-3" d="M137.188,164.466l-8.768,19.15-36.586-7.241,3.925-9.691h-8.9l4.225-10.765,40.458-7.654-7.435,16.2Z" transform="translate(-84.887 -147.601)"/>
            <path id="패스_2401" data-name="패스 2401" class="cls-4" d="M107.7,199.746l3.454-.154c-.29.7-.434,1.047-.715,1.732-3.064.023-6.1-.019-9.162,0,.205-.545.31-.822.524-1.383,1.151-.051,2.271-.038,3.423-.089.161-.408.243-.614.408-1.029l2.51-.172C107.965,199.094,107.877,199.313,107.7,199.746Zm6.1-7.069q-1.142,2.691-2.266,5.39l-9.021.683q.856-2.215,1.734-4.421Zm-4.061,3.874c.265-.644.4-.969.673-1.626l-4.189.59c-.243.6-.362.9-.6,1.488Z" transform="translate(-96.851 -184.442)"/>
            <path id="패스_2402" data-name="패스 2402" class="cls-4" d="M179.485,178.142q-2.476,5.556-4.913,11.129h-2.391c.368-.854.555-1.285.932-2.156l-.91.036a4.183,4.183,0,0,1-3.619,2,2.082,2.082,0,0,1-1.856-.675,2.116,2.116,0,0,1,.107-1.994q.777-1.854,1.563-3.7a5.816,5.816,0,0,1,1.708-2.272,6.558,6.558,0,0,1,2.684-1.161c1.158-.2,2.508.1,2.122,1.583l.966-.138c.38-.864.572-1.3.961-2.179Zm-7.3,3.642c.136-.316.044-.451-.277-.405a.836.836,0,0,0-.684.535q-1.059,2.461-2.108,4.926c-.125.295-.036.435.268.423a.693.693,0,0,0,.646-.467Q171.1,184.288,172.185,181.784Zm1.832,3.255c.363-.833.546-1.253.918-2.1l-.839.092c-.365.836-.545,1.25-.9,2.071Z" transform="translate(-150.977 -172.385)"/>
            <path id="패스_2403" data-name="패스 2403" class="cls-4" d="M230.555,174.635l-3.148.245c-.387.866-.579,1.3-.959,2.148l3.35-.15c-.434.963-.649,1.441-1.075,2.388l-5.682.043q1.426-3.245,2.868-6.483l3.224-.361c.372-.826.559-1.242.938-2.08l-3.279.461c.411-.92.619-1.384,1.038-2.32l5.969-1.03Q232.171,171.063,230.555,174.635Zm4.845-2.889,1.016-.114q-.6,1.312-1.2,2.624l-1,.078q-1.235,2.7-2.463,5.406h-2.39q2.851-6.321,5.738-12.626l2.644-.462Q236.569,169.2,235.4,171.746Z" transform="translate(-197.854 -162.853)"/>
            <g id="그룹_1462" data-name="그룹 1462" transform="translate(10.382 19.048)">
              <path id="패스_2404" data-name="패스 2404" class="cls-4" d="M137.5,260.209l9.153.812-.772,1.8-3.429-.426-.286.681-2.411-.341.276-.642-3.166-.4Zm2.572-.235a1.891,1.891,0,0,1-1.4-.619,1.332,1.332,0,0,1-.151-1.349,2.518,2.518,0,0,1,1.081-1.326,3.337,3.337,0,0,1,1.821-.516h4.686a1.555,1.555,0,0,1,1.411.6,1.727,1.727,0,0,1,.017,1.591,3.073,3.073,0,0,1-1.19,1.52,2.753,2.753,0,0,1-1.786.454Zm-.882,2.474-.264.631,6.163.911-.815,1.847-8.077-1.594.888-2.081Zm1.636-4.734a.557.557,0,0,0-.327.086.468.468,0,0,0-.2.239.259.259,0,0,0,.028.255.305.305,0,0,0,.246.115l4.259.188a.517.517,0,0,0,.332-.1.562.562,0,0,0,.208-.265.286.286,0,0,0-.011-.266.3.3,0,0,0-.255-.113Z" transform="translate(-136.201 -256.154)"/>
              <path id="패스_2405" data-name="패스 2405" class="cls-4" d="M264.827,261.667l3.733.257-1.057,2.3-10.279-1.009s.552-1.2.916-2l3.978.274.241-.525-3.705-.229q1.043-2.312,2.1-4.621l10.256,0c-.445.939-1.067,2.334-1.067,2.334l-7.35-.2-.242.526,7.328.248-1.064,2.325s-2.378-.15-3.531-.222Zm0,2.858a1.386,1.386,0,0,1,1.288.856,2.485,2.485,0,0,1-.25,1.9A3.955,3.955,0,0,1,264.431,269a2.527,2.527,0,0,1-1.857.4l-4.965-.869a1.591,1.591,0,0,1-1.28-.87,2.01,2.01,0,0,1,.121-1.689,3.377,3.377,0,0,1,1.323-1.542,2.921,2.921,0,0,1,1.885-.445Zm-1.913,2.544a.348.348,0,0,0,.218-.042.374.374,0,0,0,.163-.178.216.216,0,0,0,.011-.2.2.2,0,0,0-.156-.094l-3.69-.5a.357.357,0,0,0-.217.04.342.342,0,0,0-.157.168.2.2,0,0,0,0,.189.208.208,0,0,0,.157.092Z" transform="translate(-235.738 -256.105)"/>
              <path id="패스_2406" data-name="패스 2406" class="cls-4" d="M209.173,283.916l6.645.707c.353-.8.562-1.209.923-2.026l-6.768-.494C209.664,282.836,209.173,283.916,209.173,283.916Z" transform="translate(-196.733 -277.671)"/>
            </g>
            <g id="그룹_1468" data-name="그룹 1468" transform="translate(44.197)">
              <g id="그룹_1463" data-name="그룹 1463" transform="translate(10.588 4.702)">
                <rect id="사각형_2658" data-name="사각형 2658" class="cls-3" width="5.985" height="2.511" transform="matrix(0.417, -0.909, 0.909, 0.417, 0, 5.439)"/>
              </g>
              <g id="그룹_1464" data-name="그룹 1464" transform="translate(8.067 2.419)">
                <path id="패스_2407" data-name="패스 2407" class="cls-3" d="M386.942,159.5l-3.016,6.569-2.057-.944,3.022-6.566Z" transform="translate(-381.869 -158.56)"/>
              </g>
              <g id="그룹_1465" data-name="그룹 1465" transform="translate(6.722 0.308)">
                <path id="패스_2408" data-name="패스 2408" class="cls-3" d="M378.326,147.123l-2.294,4.982-2.047-.935,2.284-4.993Z" transform="translate(-373.985 -146.178)"/>
              </g>
              <g id="그룹_1466" data-name="그룹 1466" transform="translate(3.966)">
                <path id="패스_2409" data-name="패스 2409" class="cls-3" d="M361.956,145.42l-1.847,4.041-2.29-1.045,1.856-4.043Z" transform="translate(-357.819 -144.373)"/>
              </g>
              <g id="그룹_1467" data-name="그룹 1467" transform="translate(0 3.933)">
                <path id="패스_2410" data-name="패스 2410" class="cls-3" d="M347.21,175.162l-.434.991-2.643.979-.918,2.022h-8.663l2.023-4.4-1.291-3.482,1.758-3.829,6.064,2.766-.952,2.073-3.481-1.6-.213.466Z" transform="translate(-334.553 -167.441)"/>
              </g>
            </g>
            <g id="그룹_1474" data-name="그룹 1474" transform="translate(0 20.048)">
              <g id="그룹_1469" data-name="그룹 1469" transform="translate(4.627 4.607)">
                <rect id="사각형_2659" data-name="사각형 2659" class="cls-3" width="3.287" height="1.379" transform="translate(0 3.06) rotate(-68.55)"/>
              </g>
              <g id="그룹_1470" data-name="그룹 1470" transform="translate(2.963 4.05)">
                <path id="패스_2411" data-name="패스 2411" class="cls-3" d="M93.836,289.877l1.452-3.695-1.157-.455-1.448,3.7Z" transform="translate(-92.683 -285.727)"/>
              </g>
              <g id="그룹_1471" data-name="그룹 1471" transform="translate(1.334 4.92)">
                <path id="패스_2412" data-name="패스 2412" class="cls-3" d="M84.288,294.092l1.1-2.8-1.149-.455-1.107,2.8Z" transform="translate(-83.131 -290.833)"/>
              </g>
              <g id="그룹_1472" data-name="그룹 1472" transform="translate(0 4.308)">
                <path id="패스_2413" data-name="패스 2413" class="cls-3" d="M76.589,290.021l.9-2.27-1.286-.508-.894,2.274Z" transform="translate(-75.306 -287.243)"/>
              </g>
              <g id="그룹_1473" data-name="그룹 1473" transform="translate(0.288)">
                <path id="패스_2414" data-name="패스 2414" class="cls-3" d="M83.532,264.854l.619,1.419-.227.549L79,264.887l-.1.263,1.958.768-.458,1.166L77,265.737l.846-2.154,1.87-.815.312-.8h4.653Z" transform="translate(-76.997 -261.971)"/>
              </g>
            </g>
          </g>
        </g>
      </g>
    </g>
    <rect id="사각형_2660" data-name="사각형 2660" class="cls-5" width="66" height="41" transform="translate(2634.689 -149.669)"/>
  </g>
</svg>
