<svg xmlns="http://www.w3.org/2000/svg" width="226" height="60" viewBox="0 0 226 60">
  <g id="app_store" transform="translate(-722 -4184)">
    <g id="패스_6186" data-name="패스 6186" transform="translate(722 4184)" fill="#fff">
      <path d="M 196 59 L 30 59 C 26.0845890045166 59 22.28682327270508 58.23338317871094 18.71220588684082 56.72143936157227 C 15.25902938842773 55.26088333129883 12.15752983093262 53.16973495483398 9.493911743164062 50.50608825683594 C 6.830264568328857 47.84247207641602 4.739117622375488 44.74097061157227 3.278558731079102 41.28779602050781 C 1.766617655754089 37.71317672729492 1 33.91541290283203 1 30 C 1 26.0845890045166 1.766617655754089 22.28682327270508 3.278558731079102 18.71220588684082 C 4.739117622375488 15.25902938842773 6.830264568328857 12.15752983093262 9.493911743164062 9.493911743164062 C 12.15752983093262 6.830264568328857 15.25902938842773 4.739117622375488 18.71220588684082 3.278558731079102 C 22.28682327270508 1.766617655754089 26.0845890045166 1 30 1 L 196 1 C 199.9154052734375 1 203.7131805419922 1.766617655754089 207.2877960205078 3.278558731079102 C 210.7409973144531 4.739117622375488 213.8424682617188 6.830264568328857 216.5060882568359 9.493911743164062 C 219.1697387695312 12.15752983093262 221.2608795166016 15.25902938842773 222.721435546875 18.71220588684082 C 224.2333831787109 22.28682327270508 225 26.0845890045166 225 30 C 225 33.91541290283203 224.2333831787109 37.71317672729492 222.721435546875 41.28779602050781 C 221.2608795166016 44.74097061157227 219.1697387695312 47.84247207641602 216.5060882568359 50.50608825683594 C 213.8424682617188 53.16973495483398 210.7409973144531 55.26088333129883 207.2877960205078 56.72143936157227 C 203.7131805419922 58.23338317871094 199.9154052734375 59 196 59 Z" stroke="none"/>
      <path d="M 30 2 C 26.21914672851562 2 22.55244445800781 2.740028381347656 19.10173034667969 4.199558258056641 C 15.76776123046875 5.609706878662109 12.77311706542969 7.628883361816406 10.20100402832031 10.20100021362305 C 7.628875732421875 12.77311706542969 5.609710693359375 15.76776504516602 4.199554443359375 19.10176467895508 C 2.740036010742188 22.55244064331055 2 26.21914672851562 2 30 C 2 33.78085327148438 2.740036010742188 37.44755935668945 4.199554443359375 40.89823532104492 C 5.609710693359375 44.23223495483398 7.628875732421875 47.22688293457031 10.20100402832031 49.79899978637695 C 12.77311706542969 52.37111663818359 15.76776123046875 54.39029312133789 19.10173034667969 55.80044174194336 C 22.55244445800781 57.25997161865234 26.21914672851562 58 30 58 L 196 58 C 199.7808532714844 58 203.4475555419922 57.25997161865234 206.8982391357422 55.80044174194336 C 210.2322387695312 54.39029312133789 213.2268524169922 52.37111663818359 215.7989654541016 49.79896926879883 C 218.3711242675781 47.22685241699219 220.3902893066406 44.23223495483398 221.8004455566406 40.89823532104492 C 223.2599639892578 37.44755935668945 224 33.78085327148438 224 30 C 224 26.21914672851562 223.2599639892578 22.55244064331055 221.8004455566406 19.10176467895508 C 220.3902893066406 15.76776504516602 218.3711242675781 12.77314758300781 215.7989654541016 10.20103073120117 C 213.2268524169922 7.628883361816406 210.2322387695312 5.609706878662109 206.8982391357422 4.199558258056641 C 203.4475555419922 2.740028381347656 199.7808532714844 2 196 2 L 30 2 M 30 0 L 196 0 C 212.5685272216797 0 226 13.43146896362305 226 30 C 226 46.56852722167969 212.5685272216797 60 196 60 L 30 60 C 13.43144226074219 60 0 46.56852722167969 0 30 C 0 13.43146896362305 13.43144226074219 0 30 0 Z" stroke="none" fill="#f9f9f9"/>
    </g>
    <g id="그룹_6067" data-name="그룹 6067" transform="translate(-57 -1329)">
      <text id="App_Store-2" data-name="App Store" transform="translate(869 5551)" fill="#333" font-size="18" font-family="SourceHanSansKR-Bold, Source Han Sans KR" font-weight="700"><tspan x="0" y="0">App Store</tspan></text>
      <g id="그룹_4771" data-name="그룹 4771" transform="translate(829 5527)">
        <g id="그룹_4769" data-name="그룹 4769" transform="translate(3.142 0.941)">
          <path id="패스_4770" data-name="패스 4770" d="M145.939,232.121c-1.559-1.509-2.917-2.967-5.784-3.118-2.313-.1-3.369,1.307-5.532,1.358-2.012.05-1.861-1.559-6.035-1.106-3.621.4-6.789,4.023-6.538,9.1.252,5.482,4.073,13.075,7.644,13.075,2.514-.05,3.118-1.257,5.18-1.257,2.565,0,3.168,1.508,5.18,1.207,3.47-.5,6.739-5.985,6.739-7.745a6.97,6.97,0,0,1-4.073-5.582C142.52,235.189,144.28,233.378,145.939,232.121Z" transform="translate(-122.037 -222.365)" fill="#1a1311" fill-rule="evenodd"/>
          <path id="패스_4771" data-name="패스 4771" d="M207.176,188.412a6.682,6.682,0,0,1,5.884-7.04C213.613,184.741,210.847,188.613,207.176,188.412Z" transform="translate(-195.293 -181.372)" fill="#1a1311" fill-rule="evenodd"/>
        </g>
        <rect id="사각형_2976" data-name="사각형 2976" width="32" height="32" transform="translate(0 0)" fill="none"/>
      </g>
    </g>
  </g>
</svg>
