<svg xmlns="http://www.w3.org/2000/svg" width="24" height="24" viewBox="0 0 24 24">
  <g id="그룹_15947" data-name="그룹 15947" transform="translate(-661 -2856)">
    <g id="그룹_15946" data-name="그룹 15946" transform="translate(90.63 2513.782)">
      <path id="패스_9874" data-name="패스 9874" d="M599.992,394.574a.844.844,0,0,0-.624.264.917.917,0,0,0,0,1.278.844.844,0,0,0,.624.264.9.9,0,0,0,0-1.806Z" transform="translate(-24.014 -42.727)" fill="#e4e4e4"/>
      <path id="패스_9875" data-name="패스 9875" d="M656.118,394.517a.84.84,0,0,0-.623.264.916.916,0,0,0,0,1.278.842.842,0,0,0,.623.264.9.9,0,0,0,0-1.806Z" transform="translate(-72.601 -42.678)" fill="#e4e4e4"/>
      <path id="패스_9876" data-name="패스 9876" d="M693.55,394.574a.846.846,0,0,0-.624.264.918.918,0,0,0,0,1.278.845.845,0,0,0,.624.264.9.9,0,0,0,0-1.806Z" transform="translate(-105.006 -42.727)" fill="#e4e4e4"/>
      <path id="패스_9877" data-name="패스 9877" d="M590.779,345.218H573.745a2.382,2.382,0,0,0-2.375,2.375v9.634a2.382,2.382,0,0,0,2.375,2.375h6.689s1.292,3.526,1.762,3.526,1.868-3.526,1.868-3.526h6.715a2.382,2.382,0,0,0,2.375-2.375v-9.634A2.382,2.382,0,0,0,590.779,345.218ZM577.7,354.112a2.085,2.085,0,0,1-2.576.178h-.016v.271h-1.279v-5.578h1.279v2.132h.016a2.1,2.1,0,0,1,1.347-.414,1.69,1.69,0,0,1,1.234.608,2.235,2.235,0,0,1,.5,1.433A1.831,1.831,0,0,1,577.7,354.112Zm2.745.491h-1.3V351.15a.83.83,0,0,0-.629-.9v-1.381a2.2,2.2,0,0,1,1.934,2.326Zm5.118-1.058a2.025,2.025,0,0,1-.479.669,2.183,2.183,0,0,1-.714.445,2.365,2.365,0,0,1-.852.155,2.3,2.3,0,0,1-.839-.155,2.242,2.242,0,0,1-.715-.445,2.118,2.118,0,0,1-.49-.677,1.947,1.947,0,0,1,0-1.573,2.13,2.13,0,0,1,.49-.677,2.24,2.24,0,0,1,.715-.446,2.3,2.3,0,0,1,.839-.155,2.359,2.359,0,0,1,.852.155,2.181,2.181,0,0,1,.714.446,2.022,2.022,0,0,1,.479.669,2.011,2.011,0,0,1,0,1.589Zm5.129.554a2.541,2.541,0,0,1-.623,1.992,2.221,2.221,0,0,1-1.883.439v-1.013a1.083,1.083,0,0,0,1.234-.964v-.26h-.016a1.447,1.447,0,0,1-1.284.549,1.648,1.648,0,0,1-1.289-.555,2.159,2.159,0,0,1-.463-1.452,2.4,2.4,0,0,1,.515-1.62,1.763,1.763,0,0,1,1.392-.587,1.507,1.507,0,0,1,1.127.4h.016v-.306h1.271Z" fill="#e4e4e4"/>
    </g>
    <rect id="사각형_8065" data-name="사각형 8065" width="24" height="24" transform="translate(661 2856)" fill="none"/>
  </g>
</svg>
