<svg xmlns="http://www.w3.org/2000/svg" width="15.978" height="11.235" viewBox="0 0 15.978 11.235"><defs><style>.a{fill:#e4e4e4;}</style></defs><path class="a" d="M16.695,6.258a2.008,2.008,0,0,0-1.413-1.422A47.447,47.447,0,0,0,9.039,4.5,47.447,47.447,0,0,0,2.8,4.836,2.008,2.008,0,0,0,1.384,6.258a21.062,21.062,0,0,0-.334,3.871A21.062,21.062,0,0,0,1.384,14,1.978,1.978,0,0,0,2.8,15.4a47.447,47.447,0,0,0,6.243.336,47.447,47.447,0,0,0,6.243-.336A1.978,1.978,0,0,0,16.695,14a21.062,21.062,0,0,0,.334-3.871,21.062,21.062,0,0,0-.334-3.871ZM7.405,12.5V7.753l4.176,2.376L7.405,12.5Z" transform="translate(-1.05 -4.5)"/></svg>