<svg xmlns="http://www.w3.org/2000/svg" width="13.375" height="13.374" viewBox="0 0 13.375 13.374"><defs><style>.a{fill:#e4e4e4;}</style></defs><path class="a" d="M17.479,14.975a11.234,11.234,0,0,0-2.347-1.57c-.7-.338-.961-.331-1.459.028-.414.3-.682.578-1.159.474a6.917,6.917,0,0,1-2.329-1.723A6.867,6.867,0,0,1,8.461,9.853c-.1-.48.178-.745.474-1.159.359-.5.369-.756.028-1.459a11.012,11.012,0,0,0-1.57-2.347c-.512-.512-.627-.4-.909-.3a5.171,5.171,0,0,0-.832.442,2.51,2.51,0,0,0-1,1.055c-.2.428-.428,1.226.742,3.308a18.457,18.457,0,0,0,3.245,4.328h0l0,0,0,0h0a18.529,18.529,0,0,0,4.328,3.245c2.082,1.17,2.879.94,3.308.742a2.468,2.468,0,0,0,1.055-1,5.171,5.171,0,0,0,.442-.832C17.879,15.6,17.994,15.486,17.479,14.975Z" transform="translate(-4.49 -4.502)"/></svg>