<svg xmlns="http://www.w3.org/2000/svg" width="17.863" height="12.367" viewBox="0 0 17.863 12.367"><defs><style>.a{fill:#fff;}</style></defs><g transform="translate(-3.375 -7.875)"><path class="a" d="M21.092,10.34l-4.62,4.706a.083.083,0,0,0,0,.12L19.7,18.61a.557.557,0,0,1,0,.79.56.56,0,0,1-.79,0l-3.22-3.431a.088.088,0,0,0-.125,0l-.786.8a3.457,3.457,0,0,1-2.465,1.039A3.527,3.527,0,0,1,9.8,16.738l-.756-.769a.088.088,0,0,0-.125,0L5.7,19.4a.56.56,0,0,1-.79,0,.557.557,0,0,1,0-.79l3.233-3.444a.091.091,0,0,0,0-.12L3.521,10.34a.085.085,0,0,0-.146.06v9.417a1.378,1.378,0,0,0,1.374,1.374H19.864a1.378,1.378,0,0,0,1.374-1.374V10.4A.086.086,0,0,0,21.092,10.34Z" transform="translate(0 -0.949)"/><path class="a" d="M12.638,15.737a2.334,2.334,0,0,0,1.679-.7l6.737-6.857a1.35,1.35,0,0,0-.85-.3H5.076a1.341,1.341,0,0,0-.85.3l6.737,6.857A2.335,2.335,0,0,0,12.638,15.737Z" transform="translate(-0.331)"/></g></svg>