<svg xmlns="http://www.w3.org/2000/svg" width="78" height="50" viewBox="0 0 78 50"><defs><style>.a,.c{fill:#fff;}.a,.b{font-size:6px;font-family:SourceHanSansKR-Bold, Source Han Sans KR;font-weight:700;letter-spacing:-0.04em;}.b{fill:#afafaf;}.d{fill:#2d2d2d;}.e{fill:none;}</style></defs><g transform="translate(107 -4305)"><g transform="translate(-104 4308)"><text class="a" transform="translate(22.763 13.231)"><tspan x="0" y="0">로그인</tspan></text><text class="b" transform="translate(29.419 23.214)"><tspan x="0" y="0">로고</tspan></text><path class="c" d="M147.167,167.678,136.66,190.625l-43.84-8.677,4.7-11.612H86.856l5.062-12.9,48.48-9.172-8.909,19.412Z" transform="translate(-84.497 -147.47)"/><path class="d" d="M108.975,201.147l4.139-.185c-.348.84-.519,1.255-.857,2.076-3.672.028-7.307-.022-10.978.005.246-.654.371-.985.628-1.657,1.379-.061,2.722-.045,4.1-.106.193-.489.291-.736.489-1.233l3.008-.206C109.291,200.367,109.185,200.628,108.975,201.147Zm7.307-8.47q-1.369,3.225-2.716,6.458l-10.81.819q1.026-2.654,2.078-5.3Zm-4.866,4.642c.318-.771.479-1.161.806-1.948l-5.02.707c-.291.722-.434,1.078-.716,1.783Z" transform="translate(-95.973 -182.809)"/><path class="d" d="M182.054,178.142q-2.966,6.658-5.887,13.335H173.3c.441-1.023.665-1.539,1.117-2.584l-1.09.043a5.012,5.012,0,0,1-4.337,2.391,2.5,2.5,0,0,1-2.223-.808,2.535,2.535,0,0,1,.128-2.39q.931-2.222,1.873-4.44a6.969,6.969,0,0,1,2.047-2.722,7.858,7.858,0,0,1,3.216-1.392c1.388-.235,3.006.12,2.543,1.9l1.157-.166c.456-1.035.686-1.557,1.151-2.611Zm-8.748,4.364c.163-.378.053-.541-.332-.486a1,1,0,0,0-.82.642q-1.269,2.949-2.526,5.9c-.15.353-.043.521.321.507a.831.831,0,0,0,.774-.56Q172.009,185.507,173.306,182.506Zm2.195,3.9c.435-1,.655-1.5,1.1-2.517L175.6,184c-.437,1-.653,1.5-1.08,2.481Z" transform="translate(-147.893 -171.243)"/><path class="d" d="M232.044,176.218l-3.772.294c-.464,1.038-.694,1.552-1.149,2.574l4.014-.179c-.521,1.154-.778,1.726-1.288,2.862l-6.808.052q1.709-3.888,3.436-7.768l3.864-.433c.446-.99.67-1.488,1.123-2.492l-3.929.553c.492-1.1.741-1.659,1.244-2.78l7.152-1.234Q233.981,171.938,232.044,176.218Zm5.806-3.462,1.218-.137q-.723,1.572-1.443,3.144l-1.194.093q-1.48,3.237-2.952,6.478h-2.864q3.416-7.575,6.875-15.13l3.168-.553Q239.251,169.7,237.85,172.756Z" transform="translate(-192.86 -162.1)"/><g transform="translate(12.44 22.825)"><path class="d" d="M137.763,261.011l10.968.973-.925,2.154-4.108-.511-.343.816-2.889-.409.331-.77L137,262.792Zm3.082-.282a2.266,2.266,0,0,1-1.677-.742,1.6,1.6,0,0,1-.181-1.616,3.018,3.018,0,0,1,1.3-1.589,4,4,0,0,1,2.182-.619h5.615a1.863,1.863,0,0,1,1.691.718,2.069,2.069,0,0,1,.02,1.907,3.682,3.682,0,0,1-1.426,1.822,3.3,3.3,0,0,1-2.14.544Zm-1.057,2.965-.316.757,7.384,1.092-.977,2.213-9.678-1.91,1.065-2.493Zm1.961-5.673a.667.667,0,0,0-.392.1.561.561,0,0,0-.234.287.31.31,0,0,0,.034.305.366.366,0,0,0,.295.138l5.1.225a.62.62,0,0,0,.4-.117.673.673,0,0,0,.249-.318.343.343,0,0,0-.013-.319.353.353,0,0,0-.305-.135Z" transform="translate(-136.201 -256.152)"/><path class="d" d="M266.539,262.769l4.473.308-1.267,2.751-12.317-1.209s.662-1.433,1.1-2.4l4.767.328.289-.629-4.44-.274q1.25-2.771,2.511-5.538l12.289.005c-.533,1.125-1.278,2.8-1.278,2.8l-8.807-.238-.29.631,8.781.3-1.275,2.786s-2.849-.18-4.231-.266Zm-.006,3.425a1.661,1.661,0,0,1,1.544,1.026,2.978,2.978,0,0,1-.3,2.276,4.739,4.739,0,0,1-1.713,2.055,3.028,3.028,0,0,1-2.226.479l-5.949-1.041a1.906,1.906,0,0,1-1.534-1.042,2.409,2.409,0,0,1,.145-2.024,4.046,4.046,0,0,1,1.586-1.847,3.5,3.5,0,0,1,2.258-.534Zm-2.292,3.048a.417.417,0,0,0,.262-.05.448.448,0,0,0,.2-.213.259.259,0,0,0,.013-.239.234.234,0,0,0-.186-.113l-4.422-.6a.428.428,0,0,0-.26.048.41.41,0,0,0-.188.2.234.234,0,0,0-.006.226.249.249,0,0,0,.188.11Z" transform="translate(-231.682 -256.105)"/><path class="d" d="M209.173,284.276s5.3.565,7.963.847c.423-.963.674-1.449,1.106-2.428l-8.109-.592C209.762,282.981,209.173,284.276,209.173,284.276Z" transform="translate(-194.266 -276.792)"/></g><g transform="translate(52.96)"><g transform="translate(12.687 5.635)"><rect class="c" width="7.172" height="3.009" transform="matrix(0.417, -0.909, 0.909, 0.417, 0, 6.518)"/></g><g transform="translate(9.666 2.898)"><path class="c" d="M387.947,159.688l-3.613,7.871-2.465-1.131,3.621-7.867Z" transform="translate(-381.869 -158.56)"/></g><g transform="translate(8.055 0.369)"><path class="c" d="M379.186,147.31l-2.748,5.97-2.453-1.12,2.736-5.983Z" transform="translate(-373.985 -146.178)"/></g><g transform="translate(4.753)"><path class="c" d="M362.776,145.628l-2.213,4.842-2.744-1.253,2.224-4.845Z" transform="translate(-357.819 -144.373)"/></g><g transform="translate(0 4.713)"><path class="c" d="M349.719,176.693l-.52,1.187-3.167,1.174-1.1,2.423h-10.38l2.424-5.274-1.547-4.173,2.107-4.588,7.266,3.314-1.14,2.484-4.171-1.916-.255.558Z" transform="translate(-334.553 -167.441)"/></g></g><g transform="translate(0 24.023)"><g transform="translate(5.544 5.521)"><rect class="c" width="3.939" height="1.652" transform="translate(0 3.666) rotate(-68.55)"/></g><g transform="translate(3.55 4.853)"><path class="c" d="M94.065,290.7l1.74-4.427-1.386-.545-1.735,4.429Z" transform="translate(-92.683 -285.727)"/></g><g transform="translate(1.599 5.896)"><path class="c" d="M84.518,294.739l1.317-3.361-1.377-.545-1.326,3.361Z" transform="translate(-83.131 -290.833)"/></g><g transform="translate(0 5.163)"><path class="c" d="M76.844,290.572l1.074-2.72-1.541-.609-1.071,2.725Z" transform="translate(-75.306 -287.243)"/></g><g transform="translate(0.346)"><path class="c" d="M84.828,265.425l.742,1.7-.272.658-5.9-2.318-.124.315,2.346.921-.549,1.4L77,266.484l1.014-2.581,2.241-.977.374-.955H86.2Z" transform="translate(-76.997 -261.971)"/></g></g></g><rect class="e" width="78" height="50" transform="translate(-107 4305)"/></g></svg>