<svg xmlns="http://www.w3.org/2000/svg" width="24" height="24" viewBox="0 0 24 24">
  <g id="그룹_15945" data-name="그룹 15945" transform="translate(-637 -2830)">
    <path id="패스_9873" data-name="패스 9873" d="M90.128,205.375c2.489,0,2.784.009,3.767.054,2.526.115,3.706,1.314,3.821,3.821.045.983.054,1.277.054,3.766s-.009,2.784-.054,3.766c-.115,2.506-1.293,3.706-3.821,3.822-.983.045-1.278.054-3.767.054s-2.784-.009-3.766-.054c-2.533-.116-3.707-1.319-3.821-3.822-.045-.982-.055-1.277-.055-3.766s.01-2.784.055-3.766c.115-2.507,1.293-3.706,3.821-3.821C87.344,205.384,87.639,205.375,90.128,205.375Zm0-1.68c-2.531,0-2.849.011-3.843.056-3.386.155-5.267,2.033-5.422,5.422-.046.994-.056,1.312-.056,3.843s.011,2.849.056,3.844c.156,3.386,2.034,5.266,5.422,5.422.995.046,1.312.056,3.843.056s2.849-.011,3.844-.056c3.382-.155,5.268-2.033,5.422-5.422.045-.995.056-1.312.056-3.844s-.011-2.849-.056-3.843c-.153-3.382-2.033-5.267-5.422-5.422C92.977,203.706,92.659,203.7,90.128,203.7Zm0,4.535a4.787,4.787,0,1,0,4.787,4.787A4.787,4.787,0,0,0,90.128,208.23Zm0,7.894a3.107,3.107,0,1,1,3.107-3.107A3.107,3.107,0,0,1,90.128,216.124Zm4.976-9.2a1.119,1.119,0,1,0,1.118,1.119A1.118,1.118,0,0,0,95.1,206.922Z" transform="translate(559.194 2629.305)" fill="#e4e4e4"/>
    <rect id="사각형_8064" data-name="사각형 8064" width="24" height="24" transform="translate(637 2830)" fill="none"/>
  </g>
</svg>
