<svg xmlns="http://www.w3.org/2000/svg" width="102" height="65" viewBox="0 0 102 65">
  <defs>
    <style>
      .cls-1, .cls-4 {
        fill: #fff;
      }

      .cls-1 {
        font-size: 7px;
      }

      .cls-1, .cls-2 {
        font-family: SourceHanSansKR-Bold, Source Han Sans KR;
        font-weight: 700;
        letter-spacing: -0.04em;
      }

      .cls-2 {
        fill: #afafaf;
        font-size: 8px;
      }

      .cls-3 {
        fill: #0656ff;
      }

      .cls-5 {
        fill: none;
      }
    </style>
  </defs>
  <g id="그룹_1477" data-name="그룹 1477" transform="translate(-2635 150)">
    <g id="그룹_1476" data-name="그룹 1476" transform="translate(2638.906 -146.094)">
      <g id="그룹_1476-2" data-name="그룹 1476" transform="translate(0 0)">
        <g id="구성_요소_6_9" data-name="구성 요소 6 – 9">
          <text id="로그인" class="cls-1" transform="translate(29.638 16.113)"><tspan x="0" y="0">로그인</tspan></text>
          <text id="로고" class="cls-2" transform="translate(38.304 30.112)"><tspan x="0" y="0">로고</tspan></text>
          <g id="그룹_1475" data-name="그룹 1475">
            <path id="패스_2400" data-name="패스 2400" class="cls-3" d="M165.383,173.542,151.7,203.42l-57.081-11.3L100.745,177H86.856l6.591-16.8,63.122-11.942-11.6,25.274Z" transform="translate(-83.784 -147.229)"/>
            <path id="패스_2401" data-name="패스 2401" class="cls-4" d="M111.3,203.705l5.389-.24c-.453,1.093-.676,1.634-1.116,2.7-4.781.036-9.513-.029-14.294.007.32-.851.484-1.283.817-2.158,1.8-.08,3.544-.059,5.34-.139.252-.637.379-.958.637-1.606l3.916-.268C111.711,202.689,111.573,203.03,111.3,203.705Zm9.514-11.028q-1.782,4.2-3.536,8.409L103.2,202.152q1.336-3.455,2.706-6.9Zm-6.335,6.044c.414-1,.624-1.511,1.05-2.536l-6.536.921c-.378.939-.565,1.4-.932,2.322Z" transform="translate(-94.371 -179.829)"/>
            <path id="패스_2402" data-name="패스 2402" class="cls-4" d="M186.743,178.142q-3.862,8.669-7.665,17.363h-3.73c.574-1.332.865-2,1.455-3.364l-1.42.056a6.526,6.526,0,0,1-5.647,3.114c-1.462.011-2.431-.355-2.895-1.053s-.419-1.716.167-3.112q1.212-2.893,2.438-5.78a9.074,9.074,0,0,1,2.665-3.545,10.232,10.232,0,0,1,4.188-1.812c1.807-.306,3.914.156,3.311,2.47l1.507-.216c.593-1.348.893-2.028,1.5-3.4Zm-11.39,5.682c.213-.492.069-.7-.433-.633a1.3,1.3,0,0,0-1.067.835q-1.652,3.84-3.288,7.686c-.2.46-.056.678.418.66a1.082,1.082,0,0,0,1.008-.729Q173.664,187.731,175.354,183.824Zm2.858,5.079c.566-1.3.852-1.954,1.432-3.278l-1.309.144c-.569,1.3-.85,1.951-1.406,3.231Z" transform="translate(-142.265 -169.16)"/>
            <path id="패스_2403" data-name="패스 2403" class="cls-4" d="M234.764,179.107l-4.912.382c-.6,1.351-.9,2.021-1.5,3.351l5.226-.233c-.678,1.5-1.013,2.248-1.678,3.726l-8.865.067q2.225-5.063,4.474-10.114l5.031-.564c.58-1.289.873-1.938,1.463-3.245l-5.116.72c.641-1.436.965-2.16,1.62-3.62l9.313-1.607Q237.286,173.535,234.764,179.107Zm7.559-4.507,1.585-.178q-.941,2.046-1.879,4.094l-1.554.121q-1.927,4.215-3.843,8.434H232.9q4.447-9.863,8.952-19.7l4.125-.72Q244.147,170.624,242.323,174.6Z" transform="translate(-183.745 -160.725)"/>
            <g id="그룹_1462" data-name="그룹 1462" transform="translate(16.197 29.719)">
              <path id="패스_2404" data-name="패스 2404" class="cls-4" d="M138.235,262.475l14.28,1.267-1.2,2.8-5.349-.665-.447,1.062-3.761-.532.431-1-4.94-.617Zm4.013-.367a2.95,2.95,0,0,1-2.184-.965,2.078,2.078,0,0,1-.236-2.1,3.929,3.929,0,0,1,1.687-2.068,5.206,5.206,0,0,1,2.84-.806h7.311a2.426,2.426,0,0,1,2.2.934,2.694,2.694,0,0,1,.026,2.483,4.794,4.794,0,0,1-1.857,2.372,4.294,4.294,0,0,1-2.786.708Zm-1.377,3.86-.412.985,9.615,1.422-1.272,2.881-12.6-2.487,1.386-3.246Zm2.553-7.386a.869.869,0,0,0-.51.135.73.73,0,0,0-.305.373.4.4,0,0,0,.044.4.476.476,0,0,0,.384.18l6.645.293a.807.807,0,0,0,.518-.153.876.876,0,0,0,.325-.413.446.446,0,0,0-.018-.416.46.46,0,0,0-.4-.176Z" transform="translate(-136.201 -256.148)"/>
              <path id="패스_2405" data-name="패스 2405" class="cls-4" d="M269.663,264.782l5.824.4-1.65,3.582L257.8,267.191s.862-1.866,1.429-3.127l6.206.427.376-.819-5.781-.357q1.628-3.608,3.27-7.21l16,.007c-.694,1.465-1.665,3.642-1.665,3.642l-11.468-.309-.377.821,11.433.388-1.66,3.627s-3.71-.235-5.509-.346Zm-.007,4.459a2.163,2.163,0,0,1,2.01,1.336,3.878,3.878,0,0,1-.391,2.963,6.17,6.17,0,0,1-2.23,2.676,3.942,3.942,0,0,1-2.9.624l-7.746-1.356a2.482,2.482,0,0,1-2-1.357,3.136,3.136,0,0,1,.189-2.636,5.268,5.268,0,0,1,2.065-2.405,4.557,4.557,0,0,1,2.94-.695Zm-2.985,3.969a.543.543,0,0,0,.34-.066.583.583,0,0,0,.255-.277.337.337,0,0,0,.017-.312.3.3,0,0,0-.243-.147l-5.758-.776a.558.558,0,0,0-.338.062.534.534,0,0,0-.245.263.3.3,0,0,0-.007.295.324.324,0,0,0,.245.143Z" transform="translate(-224.278 -256.105)"/>
              <path id="패스_2406" data-name="패스 2406" class="cls-4" d="M209.173,284.932s6.9.735,10.368,1.1c.551-1.254.877-1.887,1.44-3.161l-10.559-.771C209.939,283.246,209.173,284.932,209.173,284.932Z" transform="translate(-189.764 -275.188)"/>
            </g>
            <g id="그룹_1468" data-name="그룹 1468" transform="translate(68.955)">
              <g id="그룹_1463" data-name="그룹 1463" transform="translate(16.519 7.336)">
                <rect id="사각형_2658" data-name="사각형 2658" class="cls-3" width="9.338" height="3.918" transform="matrix(0.417, -0.909, 0.909, 0.417, 0, 8.486)"/>
              </g>
              <g id="그룹_1464" data-name="그룹 1464" transform="translate(12.585 3.774)">
                <path id="패스_2407" data-name="패스 2407" class="cls-3" d="M389.783,160.028l-4.7,10.249-3.209-1.473,4.715-10.244Z" transform="translate(-381.869 -158.56)"/>
              </g>
              <g id="그룹_1465" data-name="그룹 1465" transform="translate(10.488 0.48)">
                <path id="패스_2408" data-name="패스 2408" class="cls-3" d="M380.758,147.652l-3.579,7.773-3.194-1.458,3.563-7.79Z" transform="translate(-373.985 -146.178)"/>
              </g>
              <g id="그룹_1466" data-name="그룹 1466" transform="translate(6.188)">
                <path id="패스_2409" data-name="패스 2409" class="cls-3" d="M364.274,146.007l-2.882,6.3-3.573-1.631,2.9-6.308Z" transform="translate(-357.819 -144.373)"/>
              </g>
              <g id="그룹_1467" data-name="그룹 1467" transform="translate(0 6.136)">
                <path id="패스_2410" data-name="패스 2410" class="cls-3" d="M354.3,179.488l-.677,1.545-4.123,1.528-1.431,3.155H334.553l3.156-6.868-2.015-5.433,2.743-5.974,9.461,4.315-1.485,3.234-5.431-2.495-.332.727Z" transform="translate(-334.553 -167.441)"/>
              </g>
            </g>
            <g id="그룹_1474" data-name="그룹 1474" transform="translate(0 31.279)">
              <g id="그룹_1469" data-name="그룹 1469" transform="translate(7.218 7.188)">
                <rect id="사각형_2659" data-name="사각형 2659" class="cls-3" width="5.129" height="2.152" transform="translate(0 4.773) rotate(-68.55)"/>
              </g>
              <g id="그룹_1470" data-name="그룹 1470" transform="translate(4.622 6.319)">
                <path id="패스_2411" data-name="패스 2411" class="cls-3" d="M94.482,292.2l2.265-5.764-1.8-.71-2.259,5.766Z" transform="translate(-92.683 -285.727)"/>
              </g>
              <g id="그룹_1471" data-name="그룹 1471" transform="translate(2.081 7.677)">
                <path id="패스_2412" data-name="패스 2412" class="cls-3" d="M84.937,295.918l1.714-4.376-1.793-.709-1.727,4.376Z" transform="translate(-83.131 -290.833)"/>
              </g>
              <g id="그룹_1472" data-name="그룹 1472" transform="translate(0 6.722)">
                <path id="패스_2413" data-name="패스 2413" class="cls-3" d="M77.308,291.577l1.4-3.541-2.006-.793-1.394,3.548Z" transform="translate(-75.306 -287.243)"/>
              </g>
              <g id="그룹_1473" data-name="그룹 1473" transform="translate(0.45)">
                <path id="패스_2414" data-name="패스 2414" class="cls-3" d="M87.193,266.469l.966,2.214-.354.856-7.677-3.018-.161.41,3.055,1.2-.714,1.819L77,267.847l1.32-3.36,2.918-1.272.487-1.244h7.26Z" transform="translate(-76.997 -261.971)"/>
              </g>
            </g>
          </g>
        </g>
      </g>
    </g>
    <rect id="사각형_2660" data-name="사각형 2660" class="cls-5" width="102" height="65" transform="translate(2635 -150)"/>
  </g>
</svg>
