<svg xmlns="http://www.w3.org/2000/svg" width="78" height="78" viewBox="0 0 78 78">
  <g id="그룹_15917" data-name="그룹 15917" transform="translate(-1737 -1440)">
    <path id="패스_5456" data-name="패스 5456" d="M78,39A39,39,0,1,1,39,0,39,39,0,0,1,78,39" transform="translate(1737 1440)" fill="#0656ff" opacity="0.1"/>
    <g id="그룹_15915" data-name="그룹 15915" transform="translate(1749.008 1456.004)">
      <g id="그룹_15913" data-name="그룹 15913" transform="translate(21.367)">
        <rect id="사각형_8060" data-name="사각형 8060" width="2.303" height="7.28" rx="1.152" transform="translate(6.357 0.244) rotate(-6.072)" fill="#1f506f"/>
        <path id="사각형_8061" data-name="사각형 8061" d="M1.151,0h0A1.152,1.152,0,0,1,2.3,1.152V6.129A1.151,1.151,0,0,1,1.152,7.28h0A1.152,1.152,0,0,1,0,6.128V1.151A1.151,1.151,0,0,1,1.151,0Z" transform="matrix(0.808, -0.589, 0.589, 0.808, 0, 3.34)" fill="#1f506f"/>
        <path id="사각형_8062" data-name="사각형 8062" d="M1.152,0h0A1.152,1.152,0,0,1,2.3,1.152V6.129A1.151,1.151,0,0,1,1.152,7.28h0A1.152,1.152,0,0,1,0,6.128V1.152A1.152,1.152,0,0,1,1.152,0Z" transform="translate(12.561 8.344) rotate(-156.058)" fill="#1f506f"/>
      </g>
      <path id="패스_9850" data-name="패스 9850" d="M296.658,297.465c.272.231.668.579.944.84,2.061,1.944,2.356,4.612.405,7.107-1.4,1.792-.833,3.09.408,4.27a2.188,2.188,0,0,0,.225.091c-1.178-1.156-1.687-2.434-.32-4.183,1.951-2.5,1.656-5.163-.406-7.107a8.439,8.439,0,0,0-.855-.683" transform="translate(-270.502 -278.104)" fill="#fff"/>
      <path id="패스_9851" data-name="패스 9851" d="M265.281,313.219a10.486,10.486,0,0,1,2.64-11.771c3.374-3.386,6.656-6.872,10.16-10.118a10.547,10.547,0,0,1,12.356-1.378,10.567,10.567,0,0,0-12.669,1.2c-3.5,3.246-6.786,6.732-10.16,10.118a10.487,10.487,0,0,0-2.639,11.771,10.792,10.792,0,0,0,3.043,4.536,9.92,9.92,0,0,0,1.176.683,9.852,9.852,0,0,1-.863-.5A10.8,10.8,0,0,1,265.281,313.219Z" transform="translate(-261.194 -275.503)" fill="#fff"/>
      <path id="패스_9852" data-name="패스 9852" d="M282.857,321.774c.548-.459,1.109-.89,1.569-1.253l-.246-.23c-.472.373-1.063.825-1.635,1.3-2.126,1.783-4.445,2.187-6.318,1.183C278.151,324.008,280.613,323.657,282.857,321.774Z" transform="translate(-264.646 -284.647)" fill="#fff"/>
      <path id="패스_9853" data-name="패스 9853" d="M305.489,309.849c3.384-2.076,6.883-3.965,10.283-6.015,2.9-1.751,4.016-4.392,2.754-6.883a5.619,5.619,0,0,0-2.109-2.388,4.593,4.593,0,0,0-1.139-.8,4.607,4.607,0,0,1,.827.626,5.625,5.625,0,0,1,2.11,2.388c1.261,2.491.15,5.133-2.754,6.883-3.4,2.05-6.9,3.939-10.283,6.015-2.03,1.245-3.951,1.529-5.764.583C301.317,311.406,303.342,311.166,305.489,309.849Z" transform="translate(-271.291 -277.042)" fill="#fff"/>
      <path id="패스_9854" data-name="패스 9854" d="M291.358,315.676a11.041,11.041,0,0,1-.991-15.746c.9-.994,1.816-1.447,2.813-1.032-.029-.027-.056-.054-.085-.081-1.088-.592-2.07-.135-3.04.935a11.04,11.04,0,0,0,.99,15.746,3.007,3.007,0,0,0,.31.235c.245.161.5.308.751.448-.148-.088-.3-.175-.439-.27A2.919,2.919,0,0,1,291.358,315.676Z" transform="translate(-267.804 -278.417)" fill="#fff"/>
      <path id="패스_9855" data-name="패스 9855" d="M282.985,320.593l2.961,2.765c-2.713,3.631-6.093,5.7-10.673,5.242a11.826,11.826,0,0,1-4.074-1.125,11.611,11.611,0,0,0,4.386,1.3c4.58.463,7.96-1.611,10.673-5.242l-3.206-3Z" transform="translate(-263.205 -284.718)" fill="#f1b01e"/>
      <path id="패스_9856" data-name="패스 9856" d="M314.186,293.152c-.874.261-1.906.778-2.642.526a7.261,7.261,0,0,1-.884-.375,2.935,2.935,0,0,0,.286.166,7.186,7.186,0,0,0,.91.387c.736.252,1.768-.265,2.642-.526a5.339,5.339,0,0,1,4,.167A5.186,5.186,0,0,0,314.186,293.152Z" transform="translate(-274.515 -276.782)" fill="#f1b01e"/>
      <path id="패스_9857" data-name="패스 9857" d="M322.486,295.52a19.468,19.468,0,0,0-.79-2.846,11.059,11.059,0,0,0-2.943-4.265,2.939,2.939,0,0,0-.345-.263c-.24-.156-.489-.3-.74-.434.144.083.288.165.428.256a3,3,0,0,1,.345.263,11.067,11.067,0,0,1,2.943,4.265,19.447,19.447,0,0,1,.789,2.846,3.1,3.1,0,0,1,.081.851c-.213,4.307-1.807,7.391-5.042,9.389q-6.491,4.011-13.255,7.577a10.344,10.344,0,0,1-9.9-.086,10.351,10.351,0,0,0,10.21.264q6.749-3.562,13.255-7.577c3.234-2,4.829-5.082,5.041-9.389A3.1,3.1,0,0,0,322.486,295.52Z" transform="translate(-269.757 -275.309)" fill="#f1b01e"/>
      <path id="패스_9858" data-name="패스 9858" d="M295.775,302.9c-2.063,2.878-2.092,5.363-.213,7.135a7.087,7.087,0,0,0,1.037.812,6.5,6.5,0,0,0,1.318.922,6.788,6.788,0,0,1-1.006-.743,7.081,7.081,0,0,1-1.036-.812c-1.879-1.772-1.85-4.257.213-7.135,1.269-1.77.453-2.888-.691-3.944a2.129,2.129,0,0,0-.227-.1C296.266,300.067,297.011,301.173,295.775,302.9Z" transform="translate(-269.794 -278.554)" fill="#f1b01e"/>
      <path id="패스_9859" data-name="패스 9859" d="M279.628,311.1c-.391.306-.821.643-1.24.994-2.332,1.955-5.026,2.366-7.106,1.1a5.6,5.6,0,0,1-.947-.724c-2.4-2.286-2.341-5.619.161-8.294,2.963-3.169,6.093-6.3,9.3-9.3a6.541,6.541,0,0,1,2.789-1.6,4.051,4.051,0,0,1,1.924-.493,4.462,4.462,0,0,1,2.994,1.251l.26.235c2.065,1.908,2.547,3.912,1.453,5.972a6.854,6.854,0,0,1-1.151,2.134,4.575,4.575,0,0,0-.333.489,2.1,2.1,0,0,0,.529,2.5,5,5,0,0,0,.727.571,2.769,2.769,0,0,0,1.544.487,3.12,3.12,0,0,0,.428-.041,6.213,6.213,0,0,0,1.061-1.046,10.37,10.37,0,0,0-.72-14.054c-.2-.2-.416-.4-.689-.625a10.607,10.607,0,0,0-6.806-2.518,9.866,9.866,0,0,0-6.725,2.634c-2.464,2.283-4.862,4.729-7.181,7.1l-.1.107c-.952.97-1.9,1.94-2.861,2.9a10.687,10.687,0,0,0,1.2,16.221,10.742,10.742,0,0,0,5.024,1.726c3.889.392,7.1-1.1,9.875-4.589a13.276,13.276,0,0,1-2.874-2.774c-.075-.1-.138-.2-.209-.3l-.183-.171Z" transform="translate(-261.042 -275.432)" fill="none"/>
      <path id="패스_9860" data-name="패스 9860" d="M294.56,308.081a5.605,5.605,0,0,1-1.054-.748c-2.756-2.455-2.362-4.811-1.512-6.386a10.131,10.131,0,0,1,1.247-2.246c.063-.089.121-.176.173-.26a2.732,2.732,0,0,0-.976-2.719l-.048-.047a2.661,2.661,0,0,0-2.259-.693,4.518,4.518,0,0,0-.728.661,10.669,10.669,0,0,0-.86,13.008l3.421,3.2a9.954,9.954,0,0,0,5.024,1.377,9.85,9.85,0,0,0,4.641-1.164c4.507-2.379,8.957-4.923,13.226-7.56,3.072-1.9,4.6-4.756,4.81-9a2.59,2.59,0,0,0-.068-.719l-.073-.325a16.849,16.849,0,0,0-.694-2.451,10.59,10.59,0,0,0-2.814-4.078c-.032-.029-.068-.056-.1-.084l-1.015-.773a10.631,10.631,0,0,0-5.9-1.686,14.575,14.575,0,0,0-6.156,1.44,3.03,3.03,0,0,0-.551,2.417,3.122,3.122,0,0,0,1.276,1.233l.478.265a6.686,6.686,0,0,0,.8.336.883.883,0,0,0,.282.041,4.759,4.759,0,0,0,1.408-.355c.248-.087.454-.159.653-.218a5.42,5.42,0,0,1,5.621,1.087,6.866,6.866,0,0,1,1.34,1.858c1.377,2.718.251,5.6-2.938,7.523-1.568.945-3.181,1.87-4.74,2.764-1.843,1.057-3.72,2.133-5.539,3.249a8.537,8.537,0,0,1-2.391,1.04,4,4,0,0,1-3.982.016Z" transform="translate(-267.657 -274.642)" fill="none"/>
      <path id="패스_9861" data-name="패스 9861" d="M309,305.978c.849-.494,1.7-.981,2.53-1.458,1.575-.9,3.175-1.821,4.719-2.751,1.156-.7,2.947-2.157,1.957-4.111a4.3,4.3,0,0,0-.824-1.159,2.325,2.325,0,0,0-1.733-.683,4.725,4.725,0,0,0-1.333.218c-.16.048-.326.106-.494.165a6.9,6.9,0,0,1-2.312.517,3.487,3.487,0,0,1-1.127-.181,9.376,9.376,0,0,1-1.182-.5l-.173-.1A12.9,12.9,0,0,1,309,305.978Z" transform="translate(-274.039 -277.631)" fill="none"/>
      <path id="패스_9862" data-name="패스 9862" d="M280.933,305.213c-1.88,1.853-3.725,3.736-5.5,5.638-1.512,1.617-1.613,3.346-.269,4.623a2.982,2.982,0,0,0,.505.386c1.144.7,2.615.354,4.076-.871.442-.371.9-.727,1.3-1.045l.524-.415A13.469,13.469,0,0,1,280.933,305.213Z" transform="translate(-264.07 -280.325)" fill="none"/>
      <path id="패스_9863" data-name="패스 9863" d="M302.13,312.633q6.749-3.562,13.255-7.577c3.235-2,4.829-5.082,5.042-9.389a3.1,3.1,0,0,0-.081-.851,19.447,19.447,0,0,0-.789-2.846,11.067,11.067,0,0,0-2.943-4.265,3.016,3.016,0,0,0-.345-.263c-.14-.091-.284-.173-.428-.256-3.307-1.778-7.583-1.764-11.756.177-.651.3-1.144,2.276-.791,3.06a1.919,1.919,0,0,0,.107.2,2.179,2.179,0,0,0,.674.679,7.253,7.253,0,0,0,.884.375c.736.252,1.768-.265,2.642-.526a5.185,5.185,0,0,1,4.316.345,4.593,4.593,0,0,1,1.139.8,5.618,5.618,0,0,1,2.109,2.388c1.261,2.491.15,5.133-2.754,6.883-3.4,2.05-6.9,3.939-10.283,6.014-2.147,1.317-4.172,1.557-6.076.405a6.5,6.5,0,0,1-1.318-.922,7.081,7.081,0,0,1-1.037-.812c-1.879-1.772-1.85-4.257.213-7.135,1.236-1.725.491-2.831-.606-3.863-1-.415-1.911.039-2.813,1.032a11.041,11.041,0,0,0,.991,15.746,2.919,2.919,0,0,0,.31.235c.144.095.292.182.439.27A10.344,10.344,0,0,0,302.13,312.633Z" transform="translate(-267.93 -274.784)" fill="#fff"/>
      <path id="패스_9864" data-name="패스 9864" d="M309.5,290.557a1.913,1.913,0,0,1-.107-.2c-.352-.784.141-2.757.791-3.06,4.173-1.941,8.45-1.955,11.756-.177-3.347-1.953-7.762-2-12.069,0-.65.3-1.144,2.276-.791,3.06a1.912,1.912,0,0,0,.108.2,2.338,2.338,0,0,0,.959.845l.026.012A2.181,2.181,0,0,1,309.5,290.557Z" transform="translate(-274.028 -274.713)" fill="#fff"/>
      <g id="그룹_15914" data-name="그룹 15914" transform="translate(2.124 10.254)">
        <path id="패스_9865" data-name="패스 9865" d="M282.109,321.3c.572-.48,1.164-.932,1.635-1.3l-.781-.729c-.484.384-1.114.863-1.721,1.371-2.209,1.853-4.628,2.219-6.538,1.059l0,0C276.71,323.606,279.551,323.448,282.109,321.3Z" transform="translate(-266.333 -294.608)" fill="#fff"/>
        <path id="패스_9866" data-name="패스 9866" d="M297.872,305.481c1.951-2.5,1.656-5.163-.405-7.107a5.431,5.431,0,0,0-.875-.669l.008.007c2.062,1.944,2.357,4.611.406,7.107-1.478,1.89-.766,3.232.617,4.463a3.485,3.485,0,0,0,.656.469C297.039,308.571,296.472,307.273,297.872,305.481Z" transform="translate(-272.49 -288.427)" fill="#fff"/>
        <path id="패스_9867" data-name="패스 9867" d="M264.621,312.774A10.487,10.487,0,0,1,267.261,301c3.374-3.386,6.656-6.872,10.16-10.118a10.607,10.607,0,0,1,13.311-.794,10.66,10.66,0,0,0-14.177.131c-3.5,3.246-6.786,6.732-10.16,10.119a11.175,11.175,0,0,0,1.27,16.97A10.792,10.792,0,0,1,264.621,312.774Z" transform="translate(-262.97 -285.49)" fill="#fff"/>
        <path id="패스_9868" data-name="패스 9868" d="M308.732,289.908c-.352-.784.141-2.757.791-3.06,4.572-2.127,9.27-1.943,12.678.378-3.448-2.935-8.57-3.354-13.544-1.04-.651.3-1.144,2.275-.791,3.059a3.585,3.585,0,0,0,1.437,1.435A2.613,2.613,0,0,1,308.732,289.908Z" transform="translate(-275.804 -284.7)" fill="#fff"/>
        <path id="패스_9869" data-name="패스 9869" d="M304.648,309.922c3.384-2.076,6.882-3.965,10.283-6.015,2.9-1.751,4.015-4.392,2.754-6.883a5.625,5.625,0,0,0-2.11-2.388,6.354,6.354,0,0,1,1.243,1.726c1.261,2.491.15,5.133-2.754,6.883-3.4,2.05-6.9,3.939-10.283,6.014-2.2,1.349-4.271,1.572-6.215.325C299.757,311.537,302.118,311.473,304.648,309.922Z" transform="translate(-272.886 -287.548)" fill="#fff"/>
        <path id="패스_9870" data-name="패스 9870" d="M289.128,313.561a11.138,11.138,0,0,1,.579-14.077c.969-1.069,1.952-1.527,3.04-.935q-.116-.107-.235-.213c-1.346-1.2-2.517-.788-3.672.484a11.07,11.07,0,0,0,2.005,16.535A11.252,11.252,0,0,1,289.128,313.561Z" transform="translate(-269.58 -288.404)" fill="#fff"/>
      </g>
      <path id="패스_9871" data-name="패스 9871" d="M284.061,314.215,281.1,311.45c-.461.363-1.022.793-1.569,1.253-2.244,1.883-4.706,2.234-6.63,1a5.021,5.021,0,0,1-1.084-.785l0,0a5.093,5.093,0,0,1-.864-.661c-2.143-2.036-2.187-5.074.18-7.606q4.479-4.791,9.28-9.276a5.032,5.032,0,0,1,6.229-.957,5.349,5.349,0,0,1,1.237.85,8.805,8.805,0,0,1,.855.683c2.062,1.944,2.357,4.612.406,7.107-1.367,1.749-.857,3.026.32,4.183,1.242.52,2.27-.31,3.218-1.448a10.92,10.92,0,0,0-.75-14.713c-.233-.231-.474-.446-.721-.653-.21-.145-.425-.277-.642-.406a10.547,10.547,0,0,0-12.356,1.378c-3.5,3.246-6.786,6.732-10.16,10.118a10.486,10.486,0,0,0-2.64,11.771,10.8,10.8,0,0,0,3.044,4.536,9.834,9.834,0,0,0,.863.5,11.826,11.826,0,0,0,4.074,1.125C277.968,319.92,281.348,317.846,284.061,314.215Z" transform="translate(-261.319 -275.575)" fill="#f1b01e"/>
      <path id="패스_9872" data-name="패스 9872" d="M314.474,293.155l-.071-.319A18.966,18.966,0,0,0,313.59,290a13.327,13.327,0,0,0-2.779-4.371l.039-.05-.963-.82a13,13,0,0,0-8.556-3.031,17.152,17.152,0,0,0-7.257,1.684c-1.3.6-2.064,2.427-2.122,4.053-.213-.205-.439-.412-.711-.64a13.215,13.215,0,0,0-8.483-3.13,12.464,12.464,0,0,0-8.5,3.329c-2.51,2.325-4.929,4.795-7.281,7.193l-.094.1c-.947.965-1.892,1.93-2.846,2.887a13.293,13.293,0,0,0,1.579,20.219,13.323,13.323,0,0,0,6.228,2.163,14.509,14.509,0,0,0,1.459.075h0c4.316,0,7.9-1.951,10.965-5.952a12.419,12.419,0,0,0,10.91-.389c4.559-2.407,9.061-4.98,13.379-7.648,3.815-2.357,5.792-5.983,6.044-11.083A5.159,5.159,0,0,0,314.474,293.155ZM281.985,312.4c-2.773,3.489-5.985,4.982-9.875,4.589a10.742,10.742,0,0,1-5.024-1.726,10.687,10.687,0,0,1-1.2-16.221c.959-.962,1.909-1.932,2.861-2.9l.1-.107c2.319-2.366,4.717-4.812,7.181-7.1a9.866,9.866,0,0,1,6.725-2.634,10.607,10.607,0,0,1,6.806,2.518c.273.23.492.428.689.625a10.37,10.37,0,0,1,.72,14.054,6.214,6.214,0,0,1-1.061,1.046,1.806,1.806,0,0,1-1.034.4,1.549,1.549,0,0,1-.738-.207,3.019,3.019,0,0,1-.566-.4c-1.117-.994-1.688-1.959-.89-3.309a4.581,4.581,0,0,1,.333-.489,6.854,6.854,0,0,0,1.151-2.134,5.273,5.273,0,0,0-1.589-5.612l-.067-.063a5.357,5.357,0,0,0-3.626-1.473,5.279,5.279,0,0,0-1.348.183,6.541,6.541,0,0,0-2.789,1.6c-3.21,3-6.34,6.131-9.3,9.3-2.5,2.675-2.566,6.009-.161,8.294a5.6,5.6,0,0,0,.947.724c2.08,1.264,4.774.853,7.106-1.1.419-.351.849-.688,1.24-.994l.14-.11.183.171,3.175,2.965C282.046,312.328,282.015,312.362,281.985,312.4Zm-4.493-5.6-.524.415c-.407.318-.862.674-1.3,1.045-1.461,1.225-2.933,1.567-4.076.871a2.981,2.981,0,0,1-.505-.386c-1.344-1.277-1.243-3.005.269-4.623,1.778-1.9,3.623-3.784,5.5-5.638A13.469,13.469,0,0,0,277.492,306.8Zm29.7-3.346c-4.269,2.637-8.719,5.181-13.226,7.56a9.85,9.85,0,0,1-4.641,1.164A9.954,9.954,0,0,1,284.3,310.8c-.166-.1-.33-.193-.492-.3-.029-.019-.058-.04-.085-.061l-1.033-.793,0,0a10.673,10.673,0,0,1-1.5-1.6c-.11-.145-.206-.3-.307-.445a10.669,10.669,0,0,1,.86-13.008,4.518,4.518,0,0,1,.728-.661,1.631,1.631,0,0,1,1-.377,1.963,1.963,0,0,1,1.261.591l.228.205c1.091,1.008,1.55,1.813.8,3.04-.052.085-.109.171-.173.26a10.133,10.133,0,0,0-1.247,2.246,4.758,4.758,0,0,0,1.1,5.529,7.583,7.583,0,0,0,1.106.867,5.35,5.35,0,0,0,4.345.721,8.537,8.537,0,0,0,2.391-1.04c1.82-1.116,3.7-2.192,5.539-3.249,1.559-.894,3.172-1.819,4.74-2.764,3.189-1.922,4.314-4.8,2.938-7.523a6.865,6.865,0,0,0-1.34-1.858,5.42,5.42,0,0,0-5.621-1.087c-.2.059-.4.131-.653.218a4.76,4.76,0,0,1-1.408.355.883.883,0,0,1-.283-.041,6.68,6.68,0,0,1-.8-.336l-.478-.265a3.122,3.122,0,0,1-1.276-1.233,3.03,3.03,0,0,1,.551-2.417,14.575,14.575,0,0,1,6.156-1.44,10.631,10.631,0,0,1,5.9,1.686l1.015.773c.036.028.072.056.1.084a10.59,10.59,0,0,1,2.814,4.078,16.851,16.851,0,0,1,.694,2.451l.073.325a2.59,2.59,0,0,1,.068.719C311.791,298.695,310.262,301.553,307.191,303.451ZM294.98,291.9l.173.1a9.385,9.385,0,0,0,1.182.5,3.488,3.488,0,0,0,1.127.181,6.9,6.9,0,0,0,2.312-.516c.168-.059.335-.118.494-.165a4.723,4.723,0,0,1,1.333-.218,2.325,2.325,0,0,1,1.733.683,4.3,4.3,0,0,1,.824,1.159c.989,1.954-.8,3.414-1.958,4.111-1.544.931-3.144,1.848-4.719,2.751-.833.477-1.681.964-2.53,1.458A12.9,12.9,0,0,0,294.98,291.9Z" transform="translate(-259.993 -273.594)"/>
    </g>
  </g>
</svg>
