<svg xmlns="http://www.w3.org/2000/svg" width="78" height="78" viewBox="0 0 78 78">
  <g id="그룹_15918" data-name="그룹 15918" transform="translate(-1746 -1675)">
    <path id="패스_5493" data-name="패스 5493" d="M78,39A39,39,0,1,1,39,0,39,39,0,0,1,78,39" transform="translate(1746 1675)" fill="#0656ff" opacity="0.1"/>
    <g id="그룹_15912" data-name="그룹 15912" transform="translate(1755 1694.004)">
      <path id="패스_9836" data-name="패스 9836" d="M309.419,513.117a2.894,2.894,0,0,0-3.617-1.589c-1.508.415-3.018.818-4.528,1.22l-.4.105c-1.277.34-2.554.68-3.872,1.039-2.506-1.461-5.237-3.028-8.818-5.059a5.1,5.1,0,0,0-5.837.353c-.292.221-.586.438-.88.654a4.8,4.8,0,0,0-5.111.092c-1.55.963-3.179,1.887-4.753,2.781-.877.5-1.754,1-2.62,1.5-1.551-.426-3.106-.842-4.71-1.27-1.74-.465-3.482-.931-5.216-1.412a3.075,3.075,0,0,0-3.845,1.731,30.708,30.708,0,0,0-2.831,17.976,2.937,2.937,0,0,0,2.307,2.568c2.724.7,5.515,1.427,8.313,2.17a3.091,3.091,0,0,0,.967,3.009l.231.182a8.177,8.177,0,0,0,3.437,1.851c.126.024.25.041.373.054a3.845,3.845,0,0,0,1.21,1.265,19.64,19.64,0,0,0,1.728,1.007,4.012,4.012,0,0,0,1.713.476,3.831,3.831,0,0,0,1.154,1.169,19.694,19.694,0,0,0,1.874,1.1,3.949,3.949,0,0,0,1.639.444,3.956,3.956,0,0,0,1.213,1.214c.52.335,1.036.626,1.519.9a4.185,4.185,0,0,0,2.04.568,3.662,3.662,0,0,0,3.178-1.973c.381-.644.756-1.29,1.132-1.936l.143-.246a3.988,3.988,0,0,0,2.553.358,4.521,4.521,0,0,0,3.022-2.53,6.191,6.191,0,0,0,.349-.745c1.411.466,3.235.161,4.709-1.956a5.767,5.767,0,0,0,.918-2.072,3.89,3.89,0,0,0,2.1-1.29c.117-.132.232-.275.349-.431l.511-.086a6.088,6.088,0,0,0,.739-.144l2.852-.781c1.751-.479,3.5-.959,5.259-1.423a3.128,3.128,0,0,0,2.415-2.727A30.657,30.657,0,0,0,309.419,513.117Z" transform="translate(-252.07 -508.084)" fill="#231815"/>
      <path id="패스_9837" data-name="패스 9837" d="M260.223,517.556c.157-.323.228-.323.29-.323a1.223,1.223,0,0,1,.3.054c1.762.489,3.528.96,5.294,1.433,1.593.425,3.186.851,4.775,1.29a2.578,2.578,0,0,0,.686.1,2.307,2.307,0,0,0,1.2-.349c.9-.526,1.807-1.041,2.715-1.556.974-.552,1.964-1.123,2.952-1.7a4.211,4.211,0,0,1,1.349-1.306,16.957,16.957,0,0,0,1.437-1.037l.019-.014a1.916,1.916,0,0,0-1.951.182c-1.593.99-3.247,1.929-4.846,2.837-.907.515-1.815,1.031-2.715,1.556a2.3,2.3,0,0,1-1.2.35,2.555,2.555,0,0,1-.686-.1c-1.589-.438-3.182-.864-4.775-1.29-1.766-.472-3.532-.944-5.293-1.433a1.232,1.232,0,0,0-.3-.054c-.062,0-.133,0-.29.323a27.966,27.966,0,0,0-2.574,16.37c.024.179.027.2.238.251l.731.189A27.908,27.908,0,0,1,260.223,517.556Z" transform="translate(-253.536 -510.108)" fill="#fff"/>
      <path id="패스_9838" data-name="패스 9838" d="M330.3,540.914c.888-1.9.55-3.363-1.009-4.466a3.37,3.37,0,0,1-.032,3.425,4.359,4.359,0,0,1-2.3,2.389l-.044.98,2.135-.584A5.171,5.171,0,0,0,330.3,540.914Z" transform="translate(-277.853 -517.859)" fill="#f1b01e"/>
      <path id="패스_9839" data-name="패스 9839" d="M290.769,525.515c.187-.781.366-1.562.545-2.344.337-1.475.687-3,1.086-4.479a2.607,2.607,0,0,1,.883-1.233c.911-.726,1.872-1.429,2.8-2.108.653-.478,1.307-.956,1.951-1.446a2.356,2.356,0,0,1,1.446-.543,2.715,2.715,0,0,1,1.328.4c3.635,2.062,6.4,3.651,8.973,5.151a2.153,2.153,0,0,0,1.108.319,2.655,2.655,0,0,0,.7-.1q2.106-.577,4.215-1.133c1.509-.4,3.019-.8,4.525-1.22q-.217-.484-.454-.964c-.071-.144-.113-.18-.126-.18h0a1.041,1.041,0,0,0-.248.046c-1.577.435-3.158.857-4.738,1.277-1.406.374-2.812.748-4.215,1.133a2.652,2.652,0,0,1-.7.1,2.155,2.155,0,0,1-1.108-.319c-2.571-1.5-5.339-3.089-8.973-5.151a2.713,2.713,0,0,0-1.328-.4,2.357,2.357,0,0,0-1.446.543c-.644.49-1.3.969-1.952,1.446-.93.68-1.891,1.383-2.8,2.108a2.616,2.616,0,0,0-.883,1.234c-.4,1.479-.748,3-1.086,4.479-.178.781-.358,1.563-.545,2.343a.925.925,0,0,0,.391,1.059,5.028,5.028,0,0,0,.634.417A1.061,1.061,0,0,1,290.769,525.515Z" transform="translate(-265.027 -509.544)" fill="#fff"/>
      <path id="패스_9840" data-name="패스 9840" d="M288.09,556.944c1.3-2.328,2.481-4.35,3.606-6.182a1.375,1.375,0,0,1,.453-.249c.043-.017.083-.033.121-.05a3.856,3.856,0,0,1,1.317.383.628.628,0,0,0-.027-.075,2.854,2.854,0,0,0-2.331-1.348l-.121.05a1.379,1.379,0,0,0-.454.249c-1.125,1.832-2.3,3.854-3.606,6.181a.721.721,0,0,0,.313,1.011c.219.144.421.267.624.391A.752.752,0,0,1,288.09,556.944Z" transform="translate(-264.085 -522.331)" fill="#fff"/>
      <path id="패스_9841" data-name="패스 9841" d="M295.214,561.284c1.109-1.962,2.04-3.593,3.08-5.23a1.3,1.3,0,0,1,.828-.423l.1,0a2.247,2.247,0,0,1,1.088.333,2.716,2.716,0,0,0-2.129-1.374l-.1,0a1.3,1.3,0,0,0-.828.423c-1.039,1.637-1.971,3.268-3.08,5.231a.808.808,0,0,0,.332,1.2c.193.123.389.24.584.355A.909.909,0,0,1,295.214,561.284Z" transform="translate(-266.526 -524.111)" fill="#fff"/>
      <path id="패스_9842" data-name="패스 9842" d="M281.081,553.513c.8-1.416,1.62-2.861,2.493-4.23a1.837,1.837,0,0,1,.556-.442l.1-.062a4.384,4.384,0,0,1,1.344.386.645.645,0,0,0-.021-.064,2.821,2.821,0,0,0-2.364-1.364l-.1.062a1.83,1.83,0,0,0-.555.441c-.873,1.369-1.691,2.814-2.494,4.231a.828.828,0,0,0,.3,1.213c.184.121.382.244.6.37A.967.967,0,0,1,281.081,553.513Z" transform="translate(-261.655 -521.75)" fill="#fff"/>
      <path id="패스_9843" data-name="패스 9843" d="M275.1,549.039a1.742,1.742,0,0,1,.568-.372l.084-.042a3.712,3.712,0,0,1,1.415.441,1.074,1.074,0,0,0-.13-.224,3.123,3.123,0,0,0-2.327-1.258l-.084.041a1.759,1.759,0,0,0-.568.373,7.287,7.287,0,0,0-1.056,1.78,1.532,1.532,0,0,0-.068.68l.17.133c.284.223.573.448.862.649a1.381,1.381,0,0,1,.077-.421A7.271,7.271,0,0,1,275.1,549.039Z" transform="translate(-259.253 -521.697)" fill="#fff"/>
      <path id="패스_9844" data-name="패스 9844" d="M303.2,530.611q-1.73-.986-3.458-1.979l-3.384-1.95q-4.031-2.324-8.066-4.643c-.039-.023-.128-.075-.208-.116-.155.1-.313.2-.467.287-.588.343-.926.564-1.03,1.087-.227,1.137-.5,2.28-.762,3.386q-.182.763-.359,1.526a2.888,2.888,0,0,1-2.731,2.288,2.538,2.538,0,0,1-.442-.039l-.174-.03a13.1,13.1,0,0,1-3.355-.9,5.2,5.2,0,0,1-.607-.336,2.816,2.816,0,0,1-1.294-3.334c.57-2.251,1.036-4.287,1.424-6.223a5.134,5.134,0,0,1,.7-1.8c-.988.581-1.979,1.151-2.952,1.7-.907.515-1.814,1.03-2.715,1.556a2.307,2.307,0,0,1-1.2.349,2.578,2.578,0,0,1-.686-.1c-1.589-.438-3.182-.864-4.775-1.29-1.766-.472-3.532-.944-5.294-1.433a1.222,1.222,0,0,0-.3-.054c-.062,0-.134,0-.29.322a27.908,27.908,0,0,0-2.647,15.769c2.857.735,5.772,1.5,8.693,2.277a.787.787,0,0,0,.184.031.481.481,0,0,0,.115-.157,2.652,2.652,0,0,1,2.431-1.5,4.305,4.305,0,0,1,.662.055,4.849,4.849,0,0,1,2.969,1.623,2.885,2.885,0,0,1,2.5-1.556,3.517,3.517,0,0,1,.585.052,5.337,5.337,0,0,1,3.129,1.762,3.1,3.1,0,0,1,1.958-.743,4.2,4.2,0,0,1,1.841.494,4.911,4.911,0,0,1,1.945,1.577,3.854,3.854,0,0,1,.592,1.319c.239.026.466.065.687.111a4.741,4.741,0,0,1,2.981,1.864c.049.068.1.132.149.2a2.592,2.592,0,0,1,.121,2.913c-.13.22-.25.445-.368.668a2.105,2.105,0,0,0,1.084.422.858.858,0,0,0,.338-.071,2.278,2.278,0,0,0,.979-1.094,3.659,3.659,0,0,0,.337-.868,1.667,1.667,0,0,0,.06-.518c-.022-.328-.21-.545-.638-.8-.173-.1-.6-.359-1.029-.619l-1.171-.706.457-1.188.484.13c.111.029.225.053.34.077a3.359,3.359,0,0,1,.934.294c.643.343,1.275.706,1.908,1.068.6.341,1.194.684,1.8,1.009a.942.942,0,0,0,.451.125c.508,0,.974-.516,1.275-.95a2.557,2.557,0,0,0,.511-1.647.854.854,0,0,0-.226-.545,2.093,2.093,0,0,0-.349-.229c-.307-.179-.617-.354-.926-.53s-.591-.336-.885-.506l-1.874-1.089-1.172-.682.453-1.246.5.138c.12.034.245.061.369.088a3.668,3.668,0,0,1,.994.323c1.043.568,2.086,1.171,3.095,1.753l1.214.7a1.717,1.717,0,0,0,.8.281c.159,0,.385-.048.716-.423a4.849,4.849,0,0,0,.95-1.645,1.587,1.587,0,0,0,.1-.522c-.008-.318-.2-.556-.724-.859l-4.6-2.652-1.146-.661.323-1.165.508.1c.128.026.26.042.391.058a3.072,3.072,0,0,1,1.087.284c1.081.582,2.153,1.21,3.19,1.817l1.037.606a1.949,1.949,0,0,0,.905.324c.194,0,.47-.066.886-.584a4.628,4.628,0,0,0,.795-1.572,1.47,1.47,0,0,0,.069-.429C303.887,531.145,303.714,530.9,303.2,530.611Z" transform="translate(-254.085 -511.445)" fill="#f1b01e"/>
      <path id="패스_9845" data-name="패스 9845" d="M322.7,533.282c.279-.073.328-.128.368-.42a27.88,27.88,0,0,0-2.19-15.542c-1.507.415-3.016.818-4.525,1.22q-2.11.56-4.215,1.133a2.653,2.653,0,0,1-.7.1,2.154,2.154,0,0,1-1.108-.319c-2.571-1.5-5.338-3.088-8.973-5.151a2.714,2.714,0,0,0-1.328-.4,2.356,2.356,0,0,0-1.446.543c-.644.49-1.3.968-1.951,1.446-.93.68-1.891,1.382-2.8,2.108a2.607,2.607,0,0,0-.883,1.233c-.4,1.479-.748,3-1.086,4.479-.179.782-.358,1.563-.545,2.344a1.061,1.061,0,0,0-.016.435,4.461,4.461,0,0,0,2.2.575,5.246,5.246,0,0,0,.649-.041.935.935,0,0,0,.932-.854c.086-.431.2-.859.311-1.285a12.642,12.642,0,0,0,.4-1.9,4.98,4.98,0,0,1,2.807-4.214l.138-.123.207-.01a2.564,2.564,0,0,0,.255-.031,3.131,3.131,0,0,1,.455-.046,1.123,1.123,0,0,1,.531.119c.949.493,1.889,1.032,2.8,1.553l.927.53s8.193,4.641,11.538,6.538a4.33,4.33,0,0,1,1.552,1.377c1.559,1.1,1.9,2.567,1.009,4.466a5.171,5.171,0,0,1-1.252,1.745l.425-.116C319.029,534.272,320.865,533.769,322.7,533.282Z" transform="translate(-265.578 -510.092)" fill="#f1b01e"/>
      <path id="패스_9846" data-name="패스 9846" d="M290.021,558.549a.744.744,0,0,0,.648-.427c1.144-1.9,2.357-3.941,3.475-5.99a1.122,1.122,0,0,0-.009-.739,3.856,3.856,0,0,0-1.317-.383c-.038.017-.079.033-.121.05a1.377,1.377,0,0,0-.453.249c-1.125,1.832-2.3,3.854-3.606,6.182a.752.752,0,0,0-.1.36c.344.21.675.4.984.558A1.124,1.124,0,0,0,290.021,558.549Z" transform="translate(-264.633 -522.878)" fill="#f1b01e"/>
      <path id="패스_9847" data-name="패스 9847" d="M297.107,563.011c.182,0,.462-.063.785-.609q1.493-2.521,2.954-5.063a2.207,2.207,0,0,0,.155-.371c0-.009.006-.016.009-.024a1.3,1.3,0,0,0-.149-.436,2.246,2.246,0,0,0-1.088-.333l-.1,0a1.3,1.3,0,0,0-.828.423c-1.039,1.637-1.971,3.268-3.08,5.23a.909.909,0,0,0-.125.512c.271.16.539.313.783.448A1.454,1.454,0,0,0,297.107,563.011Z" transform="translate(-267.083 -524.658)" fill="#f1b01e"/>
      <path id="패스_9848" data-name="패스 9848" d="M282.941,555.257a.891.891,0,0,0,.752-.517l.385-.64c.693-1.15,1.409-2.338,2.03-3.539a1.243,1.243,0,0,0,.014-.847,4.385,4.385,0,0,0-1.344-.386l-.1.062a1.837,1.837,0,0,0-.556.442c-.873,1.369-1.691,2.814-2.493,4.23a.967.967,0,0,0-.143.541c.266.156.558.318.892.494A1.222,1.222,0,0,0,282.941,555.257Z" transform="translate(-262.205 -522.298)" fill="#f1b01e"/>
      <path id="패스_9849" data-name="패스 9849" d="M276.08,552.466c.383,0,.575-.309.923-1.014a5.42,5.42,0,0,1,.5-.872.931.931,0,0,0,.21-.967,3.713,3.713,0,0,0-1.415-.441l-.084.042a1.742,1.742,0,0,0-.568.372,7.271,7.271,0,0,0-1.056,1.781,1.381,1.381,0,0,0-.077.421,3.788,3.788,0,0,0,1.377.659A1.054,1.054,0,0,0,276.08,552.466Z" transform="translate(-259.803 -522.244)" fill="#f1b01e"/>
    </g>
  </g>
</svg>
