<svg xmlns="http://www.w3.org/2000/svg" width="78" height="78" viewBox="0 0 78 78">
  <g id="그룹_15916" data-name="그룹 15916" transform="translate(-1902 -1457)">
    <path id="패스_5479" data-name="패스 5479" d="M78,39A39,39,0,1,1,39,0,39,39,0,0,1,78,39" transform="translate(1902 1457)" fill="#0656ff" opacity="0.1"/>
    <g id="그룹_15911" data-name="그룹 15911" transform="translate(1925.004 1471.004)">
      <g id="그룹_15910" data-name="그룹 15910" transform="translate(0 1.683)">
        <path id="패스_9822" data-name="패스 9822" d="M295.649,391.814V390.23h3.792v1.584Z" transform="translate(-281.179 -386.459)" fill="#fff"/>
        <path id="패스_9823" data-name="패스 9823" d="M293.951,385.746a1.078,1.078,0,0,1,.49-.12c1.906-.009,3.813-.013,5.719,0a1.255,1.255,0,0,1,.474.093,1,1,0,0,0-.994-.613c-1.906-.01-3.814-.006-5.72,0a1.075,1.075,0,0,0-.489.12,1.011,1.011,0,0,0-.536,1.094,1.1,1.1,0,0,0,.623.779,1.308,1.308,0,0,1-.1-.259A1.012,1.012,0,0,1,293.951,385.746Z" transform="translate(-280.442 -385.097)" fill="#fff"/>
        <path id="패스_9824" data-name="패스 9824" d="M297.013,387.393c.927,0,1.854,0,2.781,0a1.039,1.039,0,0,0,1.109-1.042,1.154,1.154,0,0,0-.081-.446,1.255,1.255,0,0,0-.474-.093c-1.906-.01-3.813-.006-5.719,0a1.077,1.077,0,0,0-.49.12,1.012,1.012,0,0,0-.536,1.094,1.306,1.306,0,0,0,.1.259,1.128,1.128,0,0,0,.447.1C295.107,387.4,296.06,387.393,297.013,387.393Z" transform="translate(-280.63 -385.285)" fill="#f1b01e"/>
        <path id="패스_9825" data-name="패스 9825" d="M294.612,419.853a9.242,9.242,0,1,1,9.578-9.159A9.212,9.212,0,0,1,294.612,419.853Z" transform="translate(-278.525 -389.416)" fill="#fff"/>
        <path id="패스_9826" data-name="패스 9826" d="M308.743,408.133a24.868,24.868,0,0,1-3.088,11.363,66.049,66.049,0,0,1-8.264,11.883c-.855,1.023-1.713,2.045-2.6,3.043-1.619,1.827-3.288,1.842-4.878.022-4.085-4.675-8.044-9.445-10.915-15a23.977,23.977,0,0,1-3.047-11.271,16.393,16.393,0,0,1,32.538-2.437A10.9,10.9,0,0,1,308.743,408.133Zm-18.28-13.013c-5.954.434-11.261,6.059-11.685,12.41-.256,3.84.982,7.316,2.7,10.658,2.669,5.2,6.367,9.654,10.173,14.029.719.826.728.818,1.389-.105a76.306,76.306,0,0,0,6.231-7.626,36.482,36.482,0,0,0,6.029-11.561c2-7.255-1.094-14.078-7.679-16.9A12.135,12.135,0,0,0,290.463,395.12Z" transform="translate(-275.952 -386.977)"/>
        <path id="패스_9827" data-name="패스 9827" d="M291.471,396.181c-.069.332-.372.279-.591.347a13.693,13.693,0,0,0-9.436,16.438,33.143,33.143,0,0,0,4.975,10.744,95.784,95.784,0,0,0,6.539,8.457,4.077,4.077,0,0,0,1.089,1.006c-.661.924-.67.932-1.389.106-3.806-4.375-7.5-8.831-10.173-14.029-1.716-3.342-2.954-6.818-2.7-10.658C280.211,402.24,285.518,396.615,291.471,396.181Z" transform="translate(-276.961 -388.038)" fill="#fff"/>
        <path id="패스_9828" data-name="패스 9828" d="M299.1,397.019a12.134,12.134,0,0,0-7.158-.909c-.069.332-.372.279-.591.347a13.693,13.693,0,0,0-9.436,16.438,33.143,33.143,0,0,0,4.975,10.744,95.778,95.778,0,0,0,6.539,8.457,4.077,4.077,0,0,0,1.089,1.006,76.21,76.21,0,0,0,6.231-7.626,36.482,36.482,0,0,0,6.029-11.561C308.786,406.66,305.689,399.837,299.1,397.019Zm-5.323,23.41a11.259,11.259,0,1,1,11.284-11A11.274,11.274,0,0,1,293.781,420.429Z" transform="translate(-277.436 -387.967)" fill="#f1b01e"/>
        <path id="패스_9829" data-name="패스 9829" d="M294.31,398.634a11.259,11.259,0,1,0,11.128,11.519A11.27,11.27,0,0,0,294.31,398.634Zm-.414,20.492a9.242,9.242,0,1,1,9.578-9.159A9.212,9.212,0,0,1,293.9,419.126Z" transform="translate(-277.81 -388.689)"/>
        <path id="패스_9830" data-name="패스 9830" d="M294.8,411.878a2.371,2.371,0,0,1,.132-.594c.116-.244.021-.372-.138-.527-.414-.4-.819-.807-1.222-1.217a.686.686,0,0,1-.07-1.034.709.709,0,0,1,1.04.054q.64.628,1.266,1.272a.353.353,0,0,0,.442.108,1.917,1.917,0,0,1,1.413,0,.35.35,0,0,0,.442-.109q1.543-1.556,3.1-3.1a1.164,1.164,0,0,1,.485-.3.6.6,0,0,1,.721.336.654.654,0,0,1-.127.821q-1.045,1.053-2.1,2.1c-.357.358-.707.723-1.076,1.07a.432.432,0,0,0-.129.53,2.133,2.133,0,0,1-2.885,2.613A2.147,2.147,0,0,1,294.8,411.878Zm2.173-.647a.748.748,0,0,0-.755.7.756.756,0,0,0,.706.749.741.741,0,0,0,.769-.717A.756.756,0,0,0,296.971,411.231Z" transform="translate(-280.554 -390.753)"/>
        <path id="패스_9831" data-name="패스 9831" d="M298.717,403.985c0,.1,0,.206,0,.309a.673.673,0,0,1-.665.688.7.7,0,0,1-.708-.652,4.647,4.647,0,0,1,0-.686.687.687,0,0,1,.725-.666.666.666,0,0,1,.65.7c0,.1,0,.206,0,.309Z" transform="translate(-281.625 -389.841)"/>
        <path id="패스_9832" data-name="패스 9832" d="M307.526,412.992a2.849,2.849,0,0,1,.631.115.621.621,0,0,1,.371.7.684.684,0,0,1-.632.584,4.818,4.818,0,0,1-.618.008.689.689,0,0,1-.751-.713.675.675,0,0,1,.753-.667c.08,0,.16,0,.24,0Z" transform="translate(-284.065 -392.499)"/>
        <path id="패스_9833" data-name="패스 9833" d="M297.332,423.181c0-.092,0-.183,0-.275a.688.688,0,1,1,1.375-.041,5.114,5.114,0,0,1,0,.619.691.691,0,1,1-1.378-.028C297.33,423.365,297.331,423.273,297.332,423.181Z" transform="translate(-281.625 -394.941)"/>
        <path id="패스_9834" data-name="패스 9834" d="M288.311,413.022c.126,0,.253-.01.377,0a.647.647,0,0,1,.6.631.617.617,0,0,1-.522.694,3.494,3.494,0,0,1-.885.015.66.66,0,0,1-.6-.71.675.675,0,0,1,.682-.636c.114-.007.228,0,.343,0Z" transform="translate(-278.959 -392.504)"/>
      </g>
      <path id="패스_9835" data-name="패스 9835" d="M301.8,385.18a2.7,2.7,0,0,0-2.68-2.355c-1.909-.023-3.819-.029-5.728,0a2.717,2.717,0,0,0-.666,5.346v3.644a14.2,14.2,0,0,1,7.059-.013v-3.625c.077-.034.148-.068.22-.1A2.707,2.707,0,0,0,301.8,385.18Zm-7.441,4.664V388.26h3.793v1.584Zm4.694-3.248c-.927.006-1.854,0-2.781,0-.953,0-1.906.008-2.86,0a1.077,1.077,0,0,1-1.07-.883,1.012,1.012,0,0,1,.536-1.094,1.075,1.075,0,0,1,.489-.12c1.906-.008,3.813-.012,5.72,0a1,1,0,0,1,1.075,1.059A1.039,1.039,0,0,1,299.054,386.6Z" transform="translate(-279.862 -382.805)"/>
    </g>
  </g>
</svg>
